<?xml version="1.0" encoding="UTF-8" standalone="no"?>
<!-- Created with Inkscape (http://www.inkscape.org/) -->

<svg
   width="64"
   height="64"
   viewBox="0 0 16.933334 16.933332"
   version="1.1"
   id="svg5"
   inkscape:version="1.3.2 (091e20e, 2023-11-25)"
   sodipodi:docname="destroy.svg"
   inkscape:export-filename="destroy.png"
   inkscape:export-xdpi="96"
   inkscape:export-ydpi="96"
   xmlns:inkscape="http://www.inkscape.org/namespaces/inkscape"
   xmlns:sodipodi="http://sodipodi.sourceforge.net/DTD/sodipodi-0.dtd"
   xmlns:xlink="http://www.w3.org/1999/xlink"
   xmlns="http://www.w3.org/2000/svg"
   xmlns:svg="http://www.w3.org/2000/svg">
  <sodipodi:namedview
     id="namedview7"
     pagecolor="#18b2e9"
     bordercolor="#666666"
     borderopacity="1.0"
     inkscape:showpageshadow="false"
     inkscape:pageopacity="0"
     inkscape:pagecheckerboard="0"
     inkscape:deskcolor="#d1d1d1"
     inkscape:document-units="px"
     showgrid="false"
     showguides="true"
     inkscape:zoom="5.6568543"
     inkscape:cx="32.08497"
     inkscape:cy="44.724504"
     inkscape:window-width="1256"
     inkscape:window-height="891"
     inkscape:window-x="219"
     inkscape:window-y="37"
     inkscape:window-maximized="0"
     inkscape:current-layer="layer1"
     showborder="true"
     borderlayer="false" />
  <defs
     id="defs2">
    <linearGradient
       inkscape:collect="always"
       id="linearGradient3009">
      <stop
         style="stop-color:#4a4a4a;stop-opacity:1;"
         offset="0"
         id="stop3005" />
      <stop
         style="stop-color:#161616;stop-opacity:1;"
         offset="1"
         id="stop3007" />
    </linearGradient>
    <radialGradient
       inkscape:collect="always"
       xlink:href="#linearGradient3009"
       id="radialGradient3011"
       cx="8.9631824"
       cy="13.276751"
       fx="8.9631824"
       fy="13.276751"
       r="8.9756994"
       gradientUnits="userSpaceOnUse"
       gradientTransform="matrix(0.96258789,0.62237997,-0.37696639,0.58302532,2.5793383,-7.2014051)" />
    <filter
       inkscape:collect="always"
       style="color-interpolation-filters:sRGB"
       id="filter3349"
       x="-0.082194114"
       y="-0.082194114"
       width="1.1643882"
       height="1.1643882">
      <feGaussianBlur
         inkscape:collect="always"
         stdDeviation="0.10842171"
         id="feGaussianBlur3351" />
    </filter>
    <filter
       inkscape:collect="always"
       style="color-interpolation-filters:sRGB"
       id="filter3353"
       x="-0.033288269"
       y="-0.033288269"
       width="1.0665765"
       height="1.0665765">
      <feGaussianBlur
         inkscape:collect="always"
         stdDeviation="0.043910334"
         id="feGaussianBlur3355" />
    </filter>
    <filter
       inkscape:collect="always"
       style="color-interpolation-filters:sRGB"
       id="filter3412"
       x="-0.0098423576"
       y="-0.0098423818"
       width="1.0196847"
       height="1.0196848">
      <feGaussianBlur
         inkscape:collect="always"
         stdDeviation="0.059163929"
         id="feGaussianBlur3414" />
    </filter>
  </defs>
  <g
     inkscape:label="Layer 1"
     inkscape:groupmode="layer"
     id="layer1"
     transform="translate(-1.8236588,0.3141425)">
    <g
       id="g4697"
       style="display:inline"
       transform="matrix(1.0748905,0,0,1.0748905,0.14405839,0.11356782)">
      <path
         id="path3402"
         style="opacity:0.421439;mix-blend-mode:normal;fill:#000000;fill-opacity:0.327811;stroke:none;stroke-width:0.148;stroke-linejoin:round;stroke-dasharray:none;stroke-opacity:1;filter:url(#filter3412)"
         d="m 14.844462,7.9832887 c 0.259852,2.5847323 -0.8788,4.9876903 -2.801664,6.4572633 -0.06934,0.03983 -0.23858,0.01358 -0.323735,0.03416 0.06469,0.05382 0.113197,0.120988 0.06995,0.151148 C 10.81372,15.306003 9.656358,15.754037 8.389292,15.88142 4.4257312,16.279886 0.88960436,13.38981 0.49113256,9.426249 0.24943766,7.0221329 1.2176272,4.7752735 2.9013954,3.2904743 2.92811,3.2669169 3.0173307,3.3267874 3.0525632,3.3355812 3.0437487,3.2926215 3.0110412,3.1957251 3.0255977,3.1834635 4.0983685,2.2798576 5.4453642,1.6790199 6.9462989,1.5281253 10.90986,1.1296534 14.445986,4.0197298 14.844458,7.9832923 Z"
         sodipodi:nodetypes="sccsssscssss"
         transform="matrix(0.88237473,0,0,0.88237473,1.5479883,1.1751023)" />
      <path
         id="path3274"
         style="display:inline;opacity:0.772039;fill:#ffffff;fill-opacity:0.0336522;stroke:none;stroke-width:0.247083;stroke-linejoin:round;stroke-dasharray:none;stroke-opacity:1"
         d="M 7.7405773,2.8818497 A 6.0760021,6.0760021 0 0 0 2.3028404,9.5351423 6.0760021,6.0760021 0 0 0 5.4558332,14.270383 5.7721788,10.429193 59.651689 0 0 9.0491372,12.659615 5.7721788,10.429193 59.651689 0 0 14.327274,7.84602 6.0760021,6.0760021 0 0 0 7.7405773,2.8818497 Z" />
      <path
         id="path184"
         style="opacity:0.995382;fill:url(#radialGradient3011);stroke:none;stroke-width:0.127867;stroke-linejoin:round;stroke-dasharray:none;stroke-opacity:1"
         d="m 14.514238,8.2326382 c 0.224503,2.2331158 -0.759252,4.3091838 -2.420536,5.5788418 -0.05991,0.03441 -0.206125,0.01173 -0.279696,0.02951 0.05589,0.0465 0.0978,0.10453 0.06043,0.130587 C 11.031819,14.559196 10.0319,14.946281 8.9372007,15.056335 5.5128315,15.400598 2.4577458,12.903677 2.1134806,9.4793037 1.9046649,7.4022343 2.7411457,5.4610291 4.1958605,4.1782163 4.218941,4.1578635 4.2960244,4.2095895 4.326464,4.217187 4.3188486,4.1800714 4.2905905,4.0963564 4.3031668,4.0857628 5.230002,3.30508 6.3937575,2.785978 7.6905108,2.6556105 11.114884,2.3113452 14.169969,4.8082667 14.514234,8.2326413 Z"
         sodipodi:nodetypes="sccsssscssss" />
    </g>
    <path
       id="path951"
       style="opacity:0.995382;fill:#1c1c1c;fill-opacity:1;stroke-width:0.248735;stroke-linejoin:round"
       d="m 10.435364,3.7426568 -0.240117,0.3012684 a 1.7808582,0.64930348 29.12995 0 0 -0.04681,0.058859 1.7808582,0.64930348 29.12995 0 0 1.239592,1.4340952 1.7808582,0.64930348 29.12995 0 0 1.871622,0.2995567 L 13.499765,5.5351668 A 1.7808582,0.64930348 29.12995 0 1 11.674959,5.1767513 1.7808582,0.64930348 29.12995 0 1 10.435367,3.7426568 Z" />
    <ellipse
       style="opacity:0.995382;fill:#0e0e0e;fill-opacity:1;stroke-width:0.155473;stroke-linejoin:round"
       id="ellipse1965"
       cx="12.718164"
       cy="-1.8105412"
       rx="1.1131266"
       ry="0.40584758"
       transform="rotate(29.12995)" />
    <path
       id="path1951"
       style="fill:#333333;fill-opacity:1;stroke:none;stroke-width:0.180304px;stroke-linecap:butt;stroke-linejoin:miter;stroke-opacity:1"
       d="M 10.95583,4.6809874 10.609896,4.989355 a 1.7808582,0.64930348 29.12995 0 0 0.502336,0.3812952 l 0.310421,-0.344792 A 1.7808582,0.64930348 29.12995 0 1 10.95583,4.6809874 Z" />
    <path
       id="path4739"
       style="opacity:0.995382;fill:#4c4c4c;fill-opacity:1;stroke:none;stroke-width:0.248735;stroke-linejoin:round"
       d="m 10.844519,3.5733467 c -0.0991,8.598e-4 -0.184987,0.014676 -0.254403,0.041105 l 0.578238,0.3593853 a 1.1131267,0.40584758 29.12995 0 1 0.119426,-0.011665 1.1131267,0.40584758 29.12995 0 1 0.895965,0.2927301 1.1131267,0.40584758 29.12995 0 1 0.792648,0.8426405 l 0.574906,0.3577194 c 0.09714,-0.2153941 -0.09145,-0.5329844 -0.509361,-0.8876331 -0.0099,-0.00839 -0.342166,-0.066656 -0.342166,-0.066656 0,0 0.252024,-0.020561 0.241071,-0.029439 C 12.757441,4.3228334 12.541258,4.1760783 12.300948,4.0421592 11.750561,3.7354415 11.208681,3.5701874 10.844519,3.5733467 Z" />
    <g
       id="g4733"
       transform="matrix(1.0748905,0,0,1.0748905,0.23295553,0.25628051)">
      <path
         style="color:#000000;display:inline;fill:#e3e3e3;fill-opacity:1;stroke-width:1.27178;-inkscape-stroke:none"
         d="m 14.242359,1.0915421 c -0.441671,-0.0421 -0.864201,0.043434 -1.28279,0.2591712 -0.83718,0.4314626 -1.642252,1.354317 -2.622514,2.7539128 l 0.287583,0.3556542 c 0.963712,-1.37597 1.730129,-2.2329081 2.460869,-2.6095146 0.730743,-0.3766063 1.441645,-0.3071902 2.377481,0.2356827 L 15.639797,1.5912301 C 15.143925,1.3035772 14.684032,1.1336421 14.242359,1.0915421 Z"
         id="path1967" />
      <path
         id="path2074"
         style="color:#000000;display:inline;fill:#c4c4c4;fill-opacity:1;stroke-width:1.27178;-inkscape-stroke:none"
         d="m 13.972728,1.2452515 c -0.324788,0.016407 -0.641207,0.1051304 -0.955147,0.266933 -0.827616,0.4265319 -1.62405,1.3335986 -2.589178,2.7064297 l 0.196065,0.2418462 c 0.963714,-1.3759685 1.730477,-2.2334486 2.461217,-2.6100548 0.73074,-0.3766062 1.441354,-0.3067413 2.37719,0.2361275 L 15.602004,1.6973008 C 15.142593,1.4426281 14.713512,1.2917141 14.300487,1.2523449 14.190068,1.2418198 14.08099,1.2397785 13.972728,1.2452515 Z" />
    </g>
    <path
       id="path1960"
       style="opacity:0.995382;fill:#000000;fill-opacity:1;stroke-width:0.248735;stroke-linejoin:round"
       d="m 12.228006,5.4393366 -0.270708,0.3666356 a 1.7808582,0.64930348 29.12995 0 0 0.720647,0.1905223 L 12.872681,5.6240471 A 1.7808582,0.64930348 29.12995 0 1 12.228006,5.4393366 Z" />
    <path
       sodipodi:type="star"
       style="opacity:0.995382;fill:#872525;fill-opacity:1;stroke:none;stroke-width:0.365001;stroke-linejoin:round;stroke-dasharray:none;stroke-opacity:1"
       id="path2131"
       inkscape:flatsided="false"
       sodipodi:sides="4"
       sodipodi:cx="17.301138"
       sodipodi:cy="6.3821087"
       sodipodi:r1="1.5834231"
       sodipodi:r2="0.44255641"
       sodipodi:arg1="0.025407515"
       sodipodi:arg2="0.78665526"
       inkscape:rounded="0.01"
       inkscape:randomized="0"
       d="m 18.88405,6.4223352 c -1.6e-5,0.012994 -1.260953,0.2641495 -1.270371,0.2731013 -0.0096,0.00908 -0.339591,1.2696008 -0.352768,1.2695843 -0.01299,-1.64e-5 -0.264149,-1.2609525 -0.273101,-1.2703711 -0.0091,-0.00955 -1.269601,-0.3395907 -1.269584,-0.3527675 1.6e-5,-0.012994 1.260952,-0.2641496 1.270371,-0.2731013 0.0096,-0.00908 0.339591,-1.2696009 0.352767,-1.2695843 0.01299,1.63e-5 0.26415,1.2609525 0.273102,1.2703711 0.0091,0.00955 1.269601,0.3395907 1.269584,0.3527675 z"
       transform="matrix(1.0112807,-0.3642812,0.3642812,1.0112807,-3.1004436,1.6051033)" />
    <path
       sodipodi:type="star"
       style="opacity:0.995382;fill:#cd4242;fill-opacity:1;stroke:none;stroke-width:0.365001;stroke-linejoin:round;stroke-dasharray:none;stroke-opacity:1;filter:url(#filter3353)"
       id="path3345"
       inkscape:flatsided="false"
       sodipodi:sides="4"
       sodipodi:cx="17.301138"
       sodipodi:cy="6.3821087"
       sodipodi:r1="1.5834231"
       sodipodi:r2="0.44255641"
       sodipodi:arg1="0.025407515"
       sodipodi:arg2="0.78665526"
       inkscape:rounded="0.01"
       inkscape:randomized="0"
       d="m 18.88405,6.4223352 c -1.6e-5,0.012994 -1.260953,0.2641495 -1.270371,0.2731013 -0.0096,0.00908 -0.339591,1.2696008 -0.352768,1.2695843 -0.01299,-1.64e-5 -0.264149,-1.2609525 -0.273101,-1.2703711 -0.0091,-0.00955 -1.269601,-0.3395907 -1.269584,-0.3527675 1.6e-5,-0.012994 1.260952,-0.2641496 1.270371,-0.2731013 0.0096,-0.00908 0.339591,-1.2696009 0.352767,-1.2695843 0.01299,1.63e-5 0.26415,1.2609525 0.273102,1.2703711 0.0091,0.00955 1.269601,0.3395907 1.269584,0.3527675 z"
       transform="matrix(0.84066821,-0.30282356,0.30282356,0.84066821,0.24357591,1.6306838)" />
    <path
       sodipodi:type="star"
       style="opacity:0.995382;fill:#b4a81f;fill-opacity:1;stroke:none;stroke-width:0.365001;stroke-linejoin:round;stroke-dasharray:none;stroke-opacity:1"
       id="path2809"
       inkscape:flatsided="false"
       sodipodi:sides="4"
       sodipodi:cx="17.301138"
       sodipodi:cy="6.3821087"
       sodipodi:r1="1.5834231"
       sodipodi:r2="0.44255641"
       sodipodi:arg1="0.025407515"
       sodipodi:arg2="0.78665526"
       inkscape:rounded="0.01"
       inkscape:randomized="0"
       d="m 18.88405,6.4223352 c -1.6e-5,0.012994 -1.260953,0.2641495 -1.270371,0.2731013 -0.0096,0.00908 -0.339591,1.2696008 -0.352768,1.2695843 -0.01299,-1.64e-5 -0.264149,-1.2609525 -0.273101,-1.2703711 -0.0091,-0.00955 -1.269601,-0.3395907 -1.269584,-0.3527675 1.6e-5,-0.012994 1.260952,-0.2641496 1.270371,-0.2731013 0.0096,-0.00908 0.339591,-1.2696009 0.352767,-1.2695843 0.01299,1.63e-5 0.26415,1.2609525 0.273102,1.2703711 0.0091,0.00955 1.269601,0.3395907 1.269584,0.3527675 z"
       transform="matrix(0.31958734,-0.66000013,0.66000013,0.31958734,6.9793286,11.135839)" />
    <path
       sodipodi:type="star"
       style="opacity:1;mix-blend-mode:normal;fill:#ffffff;fill-opacity:0.262229;stroke:none;stroke-width:0.365001;stroke-linejoin:round;stroke-dasharray:none;stroke-opacity:1"
       id="path3201"
       inkscape:flatsided="false"
       sodipodi:sides="4"
       sodipodi:cx="1.846354"
       sodipodi:cy="-2.2250834"
       sodipodi:r1="1.8980409"
       sodipodi:r2="0.80700439"
       sodipodi:arg1="1.5179973"
       sodipodi:arg2="2.2415201"
       inkscape:rounded="0.19"
       inkscape:randomized="0"
       d="M 1.9465222,-0.32968747 C 1.6824161,-0.29926749 1.5424026,-1.4150955 1.3447579,-1.5928987 1.1340243,-1.7824767 -0.01660736,-1.8433189 -0.04904188,-2.1249152 -0.07946186,-2.3890213 1.0363662,-2.5290347 1.2141694,-2.7266795 c 0.189578,-0.2107335 0.2504202,-1.3613652 0.5320165,-1.3937997 0.264106,-0.03042 0.4041195,1.085408 0.6017642,1.2632112 0.2107336,0.189578 1.3613653,0.2504202 1.3937998,0.5320165 0.03042,0.2641061 -1.0854081,0.4041195 -1.2632112,0.6017643 -0.1895781,0.2107335 -0.2504202,1.36136522 -0.5320165,1.39379973 z"
       transform="matrix(0.37999732,-0.03820256,0.03820256,0.37999732,5.7533798,6.2635646)" />
    <path
       sodipodi:type="star"
       style="opacity:0.995382;fill:#e7de72;fill-opacity:1;stroke:none;stroke-width:0.365001;stroke-linejoin:round;stroke-dasharray:none;stroke-opacity:1;filter:url(#filter3349)"
       id="path3347"
       inkscape:flatsided="false"
       sodipodi:sides="4"
       sodipodi:cx="17.301138"
       sodipodi:cy="6.3821087"
       sodipodi:r1="1.5834231"
       sodipodi:r2="0.44255641"
       sodipodi:arg1="0.025407515"
       sodipodi:arg2="0.78665526"
       inkscape:rounded="0.01"
       inkscape:randomized="0"
       d="m 18.88405,6.4223352 c -1.6e-5,0.012994 -1.260953,0.2641495 -1.270371,0.2731013 -0.0096,0.00908 -0.339591,1.2696008 -0.352768,1.2695843 -0.01299,-1.64e-5 -0.264149,-1.2609525 -0.273101,-1.2703711 -0.0091,-0.00955 -1.269601,-0.3395907 -1.269584,-0.3527675 1.6e-5,-0.012994 1.260952,-0.2641496 1.270371,-0.2731013 0.0096,-0.00908 0.339591,-1.2696009 0.352767,-1.2695843 0.01299,1.63e-5 0.26415,1.2609525 0.273102,1.2703711 0.0091,0.00955 1.269601,0.3395907 1.269584,0.3527675 z"
       transform="matrix(0.22342463,-0.46140841,0.46140841,0.22342463,9.9104867,8.3136981)" />
    <path
       style="fill:#000000;fill-opacity:0.309061;stroke:none;stroke-width:0.245709px;stroke-linecap:butt;stroke-linejoin:miter;stroke-opacity:1"
       d="m 10.525412,4.209646 0.104501,-0.067698 -0.05066,0.1457677 c -0.01906,-0.026172 -0.038,-0.052331 -0.05384,-0.07807 z"
       id="path3359"
       sodipodi:nodetypes="cccc" />
    <path
       sodipodi:type="star"
       style="opacity:1;mix-blend-mode:normal;fill:#ffffff;fill-opacity:0.141672;stroke:none;stroke-width:0.365001;stroke-linejoin:round;stroke-dasharray:none;stroke-opacity:1"
       id="path4572"
       inkscape:flatsided="false"
       sodipodi:sides="4"
       sodipodi:cx="1.846354"
       sodipodi:cy="-2.2250834"
       sodipodi:r1="1.8980409"
       sodipodi:r2="0.80700439"
       sodipodi:arg1="1.5179973"
       sodipodi:arg2="2.2415201"
       inkscape:rounded="0.19"
       inkscape:randomized="0"
       d="M 1.9465222,-0.32968747 C 1.6824161,-0.29926749 1.5424026,-1.4150955 1.3447579,-1.5928987 1.1340243,-1.7824767 -0.01660736,-1.8433189 -0.04904188,-2.1249152 -0.07946186,-2.3890213 1.0363662,-2.5290347 1.2141694,-2.7266795 c 0.189578,-0.2107335 0.2504202,-1.3613652 0.5320165,-1.3937997 0.264106,-0.03042 0.4041195,1.085408 0.6017642,1.2632112 0.2107336,0.189578 1.3613653,0.2504202 1.3937998,0.5320165 0.03042,0.2641061 -1.0854081,0.4041195 -1.2632112,0.6017643 -0.1895781,0.2107335 -0.2504202,1.36136522 -0.5320165,1.39379973 z"
       transform="matrix(0.20689437,-0.02850655,0.02850655,0.20689437,6.7485642,7.803701)" />
    <path
       sodipodi:type="star"
       style="opacity:1;mix-blend-mode:normal;fill:#ffffff;fill-opacity:0.081141;stroke:none;stroke-width:0.365001;stroke-linejoin:round;stroke-dasharray:none;stroke-opacity:1"
       id="path4632"
       inkscape:flatsided="false"
       sodipodi:sides="4"
       sodipodi:cx="1.846354"
       sodipodi:cy="-2.2250834"
       sodipodi:r1="1.8980409"
       sodipodi:r2="0.80700439"
       sodipodi:arg1="1.5179973"
       sodipodi:arg2="2.2415201"
       inkscape:rounded="0.19"
       inkscape:randomized="0"
       d="M 1.9465222,-0.32968747 C 1.6824161,-0.29926749 1.5424026,-1.4150955 1.3447579,-1.5928987 1.1340243,-1.7824767 -0.01660736,-1.8433189 -0.04904188,-2.1249152 -0.07946186,-2.3890213 1.0363662,-2.5290347 1.2141694,-2.7266795 c 0.189578,-0.2107335 0.2504202,-1.3613652 0.5320165,-1.3937997 0.264106,-0.03042 0.4041195,1.085408 0.6017642,1.2632112 0.2107336,0.189578 1.3613653,0.2504202 1.3937998,0.5320165 0.03042,0.2641061 -1.0854081,0.4041195 -1.2632112,0.6017643 -0.1895781,0.2107335 -0.2504202,1.36136522 -0.5320165,1.39379973 z"
       transform="matrix(0.16691724,-0.02299838,0.02299838,0.16691724,8.4296603,6.2777917)" />
    <path
       id="path4744"
       style="opacity:0.995382;fill:#4c4c4c;fill-opacity:1;stroke:none;stroke-width:0.248735;stroke-linejoin:round"
       d="m 10.775086,3.5766795 c -0.02235,0.00178 -0.04378,0.00449 -0.06444,0.00777 0.02057,-0.00332 0.04217,-0.00595 0.06444,-0.00777 z m -0.09554,0.013331 c -0.02053,0.00421 -0.03979,0.00914 -0.05832,0.014998 0.01837,-0.00582 0.038,-0.010767 0.05832,-0.014998 z m -0.08498,0.024441 c -0.07367,0.028048 -0.128785,0.070353 -0.161085,0.1283125 -0.06567,0.1178534 -0.02822,0.2824105 0.08999,0.4671461 0.008,0.012493 0.08739,-0.069239 0.104425,-0.067767 -0.0077,0.012156 -0.06055,0.1320012 -0.05055,0.1455319 0.212903,0.2884322 0.604925,0.6156708 1.095933,0.8892996 0.859138,0.4787785 1.696797,0.6126389 1.871361,0.2993956 0.0039,-0.00694 0.0078,-0.013932 0.0111,-0.021108 L 12.980837,5.0975427 a 1.1131267,0.40584758 29.12995 0 1 -0.01778,0.05388 1.1131267,0.40584758 29.12995 0 1 -1.16981,-0.1871917 1.1131267,0.40584758 29.12995 0 1 -0.774873,-0.8965206 1.1131267,0.40584758 29.12995 0 1 0.153308,-0.094429 z m 1.970789,0.5832384 c 0.02763,0.017752 0.05435,0.035875 0.0811,0.05388 -0.02675,-0.018004 -0.05348,-0.036128 -0.0811,-0.05388 z m 0.0811,0.05388 c 0.02675,0.018004 0.05302,0.035666 0.07888,0.05388 -0.02585,-0.018214 -0.05212,-0.035877 -0.07888,-0.05388 z m 0.64045,0.5426894 c 0.01716,0.018264 0.03373,0.036486 0.04944,0.054436 -0.01574,-0.017994 -0.03225,-0.036125 -0.04944,-0.054436 z" />
    <path
       style="fill:#292929;fill-opacity:1;stroke:none;stroke-width:0.284398px;stroke-linecap:butt;stroke-linejoin:miter;stroke-opacity:1"
       d="m 12.704216,4.5009732 0.241071,-0.029439 0.101093,0.096095 z"
       id="path4749" />
  </g>
</svg>
