<?xml version="1.0" encoding="UTF-8" standalone="no"?>
<!-- Created with Inkscape (http://www.inkscape.org/) -->

<svg
   width="64"
   height="64"
   viewBox="0 0 16.933333 16.933334"
   version="1.1"
   id="svg40514"
   sodipodi:docname="upgrade.svg"
   inkscape:version="1.3.2 (091e20e, 2023-11-25)"
   inkscape:export-filename="upgrade.png"
   inkscape:export-xdpi="96"
   inkscape:export-ydpi="96"
   xmlns:inkscape="http://www.inkscape.org/namespaces/inkscape"
   xmlns:sodipodi="http://sodipodi.sourceforge.net/DTD/sodipodi-0.dtd"
   xmlns="http://www.w3.org/2000/svg"
   xmlns:svg="http://www.w3.org/2000/svg">
  <sodipodi:namedview
     id="namedview40516"
     pagecolor="#636363"
     bordercolor="#666666"
     borderopacity="1.0"
     inkscape:showpageshadow="2"
     inkscape:pageopacity="0"
     inkscape:pagecheckerboard="0"
     inkscape:deskcolor="#d1d1d1"
     inkscape:document-units="px"
     showgrid="false"
     inkscape:zoom="4.7572176"
     inkscape:cx="41.726071"
     inkscape:cy="24.804415"
     inkscape:window-width="1312"
     inkscape:window-height="771"
     inkscape:window-x="0"
     inkscape:window-y="37"
     inkscape:window-maximized="0"
     inkscape:current-layer="layer1" />
  <defs
     id="defs40511">
    <filter
       inkscape:collect="always"
       style="color-interpolation-filters:sRGB"
       id="filter76742"
       x="-0.045222348"
       y="-0.034834908"
       width="1.0905188"
       height="1.0696698">
      <feGaussianBlur
         inkscape:collect="always"
         stdDeviation="0.54898392"
         id="feGaussianBlur76744" />
    </filter>
  </defs>
  <g
     inkscape:label="Layer 1"
     inkscape:groupmode="layer"
     id="layer1"
     transform="translate(-10.578485,-5.7271091)">
    <path
       id="path76740"
       style="opacity:0.995382;fill:#000000;fill-opacity:1;stroke:#000000;stroke-width:0.144593;stroke-linejoin:round;stroke-dasharray:none;stroke-opacity:0.479569;filter:url(#filter76742)"
       inkscape:transform-center-x="-0.17462091"
       inkscape:transform-center-y="-0.96188595"
       d="m 27.286593,7.1171072 c -0.06051,-5.05e-4 -0.120346,2.98e-4 -0.180408,0.00334 C 23.011473,7.3355313 18.457334,15.171094 16.44874,18.745788 14.563205,22.101491 10.452699,29.7998 12.549495,33.02773 c 1.246991,1.9197 4.622387,2.775143 8.074395,3.148608 v 7.101886 c 0,2.070749 1.666421,3.737172 3.737168,3.73717 h 5.913267 c 2.070746,0 3.738302,-1.666421 3.738302,-3.73717 V 36.102769 C 37.566339,35.688021 41.202581,34.764454 42.26407,32.680574 44.125157,29.026912 39.615976,21.165622 37.524496,17.638784 35.591825,14.379733 31.093231,7.1495582 27.286659,7.1170004 Z"
       transform="matrix(0.3996329,0,0,0.3996329,8.3197295,3.4709354)" />
    <path
       id="path38862"
       style="opacity:0.995382;fill:#87df06;fill-opacity:1;stroke:#000000;stroke-width:0.057784;stroke-linejoin:round;stroke-dasharray:none;stroke-opacity:0.479569"
       inkscape:transform-center-x="-0.17460871"
       inkscape:transform-center-y="-0.96188423"
       d="m 19.22435,6.3151657 c -0.02419,-2.024e-4 -0.0481,1.192e-4 -0.07211,0.00134 -1.636383,0.085946 -3.456366,3.2173028 -4.259066,4.6458683 -0.753521,1.34105 -2.396215,4.417547 -1.558266,5.707535 0.498337,0.767175 1.847258,1.109038 3.226794,1.258287 v 2.838147 c 0,0.827539 0.665955,1.493498 1.493495,1.493495 h 2.363136 c 0.827538,0 1.493948,-0.665956 1.493948,-1.493495 v -2.867547 c 1.42018,-0.165744 2.873343,-0.534834 3.297548,-1.367623 0.743758,-1.460121 -1.058258,-4.601755 -1.894083,-6.011194 C 22.543387,9.2175501 20.745602,6.3281338 19.224371,6.3151227 Z" />
    <path
       id="path41791"
       style="opacity:0.995382;fill:#ffffff;fill-opacity:0.248257;stroke:none;stroke-width:0.057784;stroke-linejoin:round;stroke-dasharray:none;stroke-opacity:0.479569"
       inkscape:transform-center-x="-0.17462401"
       inkscape:transform-center-y="-0.9618841"
       d="m 19.224396,6.3150745 c -0.02419,-2.026e-4 -0.04809,2.29e-4 -0.07207,0.00145 -1.636382,0.085948 -3.456488,3.217221 -4.259188,4.6457855 -0.753522,1.341048 -2.396111,4.417705 -1.558162,5.70769 0.498337,0.767174 1.847277,1.108847 3.226812,1.258095 v 2.838148 c 0,0.827541 0.665985,1.493528 1.493523,1.493526 h 2.362956 c 0.134881,0 0.265369,-0.01813 0.38949,-0.05121 h -1.759516 c -0.827538,0 -1.493525,-0.665985 -1.493525,-1.493526 V 17.876875 C 16.175184,17.727636 14.826244,17.385747 14.327903,16.618573 13.489956,15.328587 15.132547,12.252138 15.886067,10.91109 16.606114,9.6296228 18.144781,6.9783745 19.635161,6.3838439 19.496674,6.3404849 19.35943,6.3162289 19.2244,6.3150819 Z" />
    <path
       id="path42159"
       style="opacity:0.995382;fill:#000000;fill-opacity:0.0834569;stroke:none;stroke-width:0.057784;stroke-linejoin:round;stroke-dasharray:none;stroke-opacity:0.479569"
       inkscape:transform-center-x="-0.17462513"
       inkscape:transform-center-y="-0.9618748"
       d="m 19.354709,6.3233352 c 1.318406,0.6990561 2.680812,2.8962228 3.326559,3.9851388 0.835822,1.409439 2.637914,4.551147 1.894164,6.011271 -0.424205,0.832784 -1.877468,1.201802 -3.297647,1.367547 v 2.867477 c 0,0.827537 -0.666399,1.493523 -1.493936,1.493523 h -2.362957 c -0.0492,0 -0.09785,-0.0026 -0.145795,-0.007 0.226787,0.138616 0.493817,0.218494 0.780217,0.218494 h 2.362957 c 0.827537,0 1.493936,-0.665985 1.493936,-1.493523 V 17.898844 C 23.332389,17.7331 24.785652,17.364083 25.209859,16.531297 25.95361,15.071175 24.151516,11.929465 23.315694,10.520026 22.565286,9.2546674 20.846964,6.4914557 19.354717,6.3234625 Z M 14.385518,17.442366 c 0.447658,0.184397 0.981314,0.312276 1.541848,0.401258 v -0.127007 c -0.53469,-0.05785 -1.064096,-0.144986 -1.541848,-0.274254 z" />
  </g>
</svg>
