<?xml version="1.0" encoding="UTF-8" standalone="no"?>
<!-- Created with Inkscape (http://www.inkscape.org/) -->

<svg
   width="40"
   height="40"
   viewBox="0 0 10.583333 10.583334"
   version="1.1"
   id="svg40514"
   sodipodi:docname="upgrade.svg"
   inkscape:version="1.2 (56b05e47e7, 2022-06-09, custom)"
   inkscape:export-filename="../9bc47471/upgrade.png"
   inkscape:export-xdpi="96"
   inkscape:export-ydpi="96"
   xmlns:inkscape="http://www.inkscape.org/namespaces/inkscape"
   xmlns:sodipodi="http://sodipodi.sourceforge.net/DTD/sodipodi-0.dtd"
   xmlns="http://www.w3.org/2000/svg"
   xmlns:svg="http://www.w3.org/2000/svg">
  <sodipodi:namedview
     id="namedview40516"
     pagecolor="#636363"
     bordercolor="#666666"
     borderopacity="1.0"
     inkscape:showpageshadow="2"
     inkscape:pageopacity="0"
     inkscape:pagecheckerboard="0"
     inkscape:deskcolor="#d1d1d1"
     inkscape:document-units="mm"
     showgrid="false"
     inkscape:zoom="4.7572176"
     inkscape:cx="58.227313"
     inkscape:cy="57.386486"
     inkscape:window-width="1920"
     inkscape:window-height="995"
     inkscape:window-x="1920"
     inkscape:window-y="0"
     inkscape:window-maximized="1"
     inkscape:current-layer="layer1" />
  <defs
     id="defs40511">
    <filter
       inkscape:collect="always"
       style="color-interpolation-filters:sRGB"
       id="filter76742"
       x="-0.045222348"
       y="-0.034834908"
       width="1.0905188"
       height="1.0696698">
      <feGaussianBlur
         inkscape:collect="always"
         stdDeviation="0.54898392"
         id="feGaussianBlur76744" />
    </filter>
  </defs>
  <g
     inkscape:label="Layer 1"
     inkscape:groupmode="layer"
     id="layer1"
     transform="translate(-10.578485,-5.7271091)">
    <path
       id="path76740"
       style="opacity:0.995382;fill:#000000;fill-opacity:1;stroke:#000000;stroke-width:0.144593;stroke-linejoin:round;stroke-dasharray:none;stroke-opacity:0.479569;filter:url(#filter76742)"
       inkscape:transform-center-x="-0.10799776"
       inkscape:transform-center-y="-0.59489773"
       d="m 27.286593,7.1171072 c -0.06051,-5.05e-4 -0.120346,2.98e-4 -0.180408,0.00334 C 23.011473,7.3355313 18.457334,15.171094 16.44874,18.745788 14.563205,22.101491 10.452699,29.7998 12.549495,33.02773 c 1.246991,1.9197 4.622387,2.775143 8.074395,3.148608 v 7.101886 c 0,2.070749 1.666421,3.737172 3.737168,3.73717 h 5.913267 c 2.070746,0 3.738302,-1.666421 3.738302,-3.73717 V 36.102769 C 37.566339,35.688021 41.202581,34.764454 42.26407,32.680574 44.125157,29.026912 39.615976,21.165622 37.524496,17.638784 35.591825,14.379733 31.093231,7.1495582 27.286659,7.1170004 Z"
       transform="matrix(0.247161,0,0,0.247161,9.29225,4.3441586)" />
    <path
       id="path38862"
       style="opacity:0.995382;fill:#87df06;fill-opacity:1;stroke:#000000;stroke-width:0.0357377;stroke-linejoin:round;stroke-dasharray:none;stroke-opacity:0.479569"
       inkscape:transform-center-x="-0.10798848"
       inkscape:transform-center-y="-0.59489822"
       d="m 16.036432,6.10323 c -0.01496,-1.252e-4 -0.02975,7.37e-5 -0.0446,8.257e-4 -1.012054,0.053155 -2.137659,1.9898056 -2.634105,2.8733305 -0.46603,0.8293992 -1.481987,2.7321208 -0.963741,3.5299398 0.308207,0.474475 1.142474,0.685907 1.995676,0.778213 v 1.755309 c 0,0.511808 0.411873,0.923684 0.923682,0.923682 h 1.461529 c 0.511807,0 0.923962,-0.411874 0.923962,-0.923682 V 13.267356 C 18.577174,13.164848 19.475912,12.936577 19.73827,12.421522 20.198262,11.518481 19.083769,9.5754744 18.566836,8.7037784 18.089157,7.898268 16.977281,6.1112504 16.036445,6.1032034 Z" />
    <path
       id="path41791"
       style="opacity:0.995382;fill:#ffffff;fill-opacity:0.248257;stroke:none;stroke-width:0.0357377;stroke-linejoin:round;stroke-dasharray:none;stroke-opacity:0.479569"
       inkscape:transform-center-x="-0.10800289"
       inkscape:transform-center-y="-0.59489779"
       d="m 16.03646,6.1031736 c -0.01496,-1.253e-4 -0.02974,1.416e-4 -0.04457,8.945e-4 -1.012053,0.053156 -2.137734,1.989755 -2.63418,2.8732791 -0.466031,0.829398 -1.481923,2.7322188 -0.963677,3.5300358 0.308207,0.474474 1.142486,0.685789 1.995687,0.778094 v 1.75531 c 0,0.511809 0.411892,0.923702 0.923699,0.923701 h 1.461418 c 0.08342,0 0.164123,-0.01121 0.240888,-0.03167 h -1.088208 c -0.511808,0 -0.923701,-0.411892 -0.923701,-0.923701 v -1.755316 c -0.853199,-0.0923 -1.687478,-0.303748 -1.995687,-0.778222 -0.518245,-0.797818 0.497648,-2.70051 0.963678,-3.529908 0.445327,-0.7925488 1.396947,-2.4322666 2.318702,-2.799966 -0.08565,-0.026816 -0.170531,-0.041818 -0.254043,-0.042527 z" />
    <path
       id="path42159"
       style="opacity:0.995382;fill:#000000;fill-opacity:0.0834569;stroke:none;stroke-width:0.0357377;stroke-linejoin:round;stroke-dasharray:none;stroke-opacity:0.479569"
       inkscape:transform-center-x="-0.10800041"
       inkscape:transform-center-y="-0.59487629"
       d="m 16.117055,6.1082826 c 0.815395,0.4323453 1.658002,1.7912272 2.057377,2.4646889 0.516931,0.871696 1.631471,2.8147485 1.171484,3.7177915 -0.262358,0.515052 -1.161158,0.743279 -2.039496,0.845787 v 1.773449 c 0,0.511807 -0.412148,0.923699 -0.923955,0.923699 h -1.461418 c -0.03043,0 -0.06052,-0.0016 -0.09017,-0.0043 0.140261,0.08573 0.305411,0.135132 0.482541,0.135132 h 1.461418 c 0.511807,0 0.923955,-0.411892 0.923955,-0.923699 v -1.773413 c 0.87834,-0.102508 1.77714,-0.330734 2.039499,-0.845787 C 20.198278,11.518589 19.083737,9.5755354 18.566806,8.7038393 18.102701,7.9212239 17.03997,6.2122601 16.11706,6.1083613 Z m -3.073296,6.8767884 c 0.276863,0.114044 0.606913,0.193133 0.953587,0.248166 v -0.07855 c -0.33069,-0.03578 -0.658112,-0.08967 -0.953587,-0.169618 z" />
  </g>
</svg>
